
		<svg xmlns="http://www.w3.org/2000/svg" xmlns:xlink="http://www.w3.org/1999/xlink" version="1.1" width="3114.7227533460805" height="1841.3001912045888">
			
			<g transform="scale(5.736137667304015) translate(10, 10)">
				<defs id="SvgjsDefs1029"/><g id="SvgjsG1030" featureKey="root" fill="#000" transform="matrix(1,0,0,1,0,0)"/><g id="SvgjsG1031" featureKey="symbol1" fill="#000" transform="matrix(0.522353375556466,0,0,0.522353375556466,173.02611129239384,-0.010445314005535106)"><g id="SvgjsG1032"><title xmlns="http://www.w3.org/2000/svg">vtak</title><path xmlns="http://www.w3.org/2000/svg" d="M416,273.69L387.05,276l-12.85,6.71-48.76,12.19-9,5-18.24-24,9.34-94.5,24.94-70.17L259.92,144l-19.3-4.54-42.26,57.83L177,198.47l5.06,61.8-10.68,11.28,64.81,47.09-8.62,9.19,17.63,7.48-76,48.5-36.52,58h11.63l-5.22,13.91,16.75-17.94-0.71,14.95,97.68-82.92h84l35.45-18.57,29.26-31.47,1.94-1.32,11.12-7.25L422,297.09l12.2-15.25ZM387.9,278.9l27.56-2.16,11.08,5-16.43,2.53-29.8-1.4Zm18.94,8.18-19.11,20.15L377.2,285.7Zm-32.52-.44,11.07,22.62-43.49,26.51,12.23-28.42Zm-36.43,50.83-0.47.09-31.49-5.66,23.92-14.5L350,309.27Zm-11.35-39.81L370,286.82l-18,18.42-22.43,9-11.16-12.1Zm-10.93,6.07,11.22,12L303,330.16l-4.43-48.77Zm-18.24-50.16-2-59.47,8.75-9Zm7.37-73.34-11.68,11.95L254.3,203.52,325.79,121Zm-52.54,27,40.22-11.75L295,271.13Zm41.1,66.8L227.85,259.6l22.25-50.12ZM261.42,146.64l62.83-28.42-72.06,83.14Zm-3.06.1L250,196.28l-7-53.15Zm-18.12-1.66,7.83,59.52-46.25-6.94Zm6.66,62.38,0.24,1.27-21.39,48.19-24.16-56.26Zm-48.72-7.13,21,48.94-37.59-48Zm-17.63,4.42,43.28,55.31v0L185,259.34Zm-4.62,66.38,7.71-8.14L226,307.53Zm11.27-8.75,37.53,0.72,11.12,50.38Zm40.61,0.78,2.29,0,0,0,65.17,14.39,4.84,53.21-60.34-13.6Zm67.52,69.61L263.17,341l-20-20Zm-62.61-6,5.75-6.14,24.24,23.59,14.34,3.36-28.35,9.91,1.19-21.58ZM171.1,388.12l0.61-1.39-0.25-.11,0.19-.79,75.13-48-1.14,20.73L186.9,380.49l-24.23,42.14Zm71-25-44.8,44.19-7.55-24.69Zm-104,75.66L162.6,400l-17.05,38.78h-7.38Zm9.09,3.82,0.66-1.75,16.24-36.93-6.81,27.87Zm12.91-9.6,27.33-47.54,7.41,24.24-36,35.47Zm91.67-66.22h-0.08L186.69,422l61.19-60.36,23.94-8.95Zm5.21,0,25.38-17.86,45.43,17.86h-70.8Zm77.07-.76-52-20.35L269,342.59l32.79-8.37,32.93,5.92,1.39,0.25,0.95,0.17Zm3,0.24L340,341.33l27.55,9Zm33.84-18-29.4-9.59,54.24-17.11Zm-15.92-17,32.27-19.67,9.94,6.35Zm45.72-14.64-8.2-5.24,16,0.17Zm18.78-21.31L412.6,308.6l-21.81-.23,20.13-21.23,17.29-2.66Z" transform="translate(-132.73 -111.21)"/></g></g><g id="SvgjsG1033" featureKey="text1" fill="#000" transform="matrix(7.129236820258718,0,0,7.129236820258718,-2.138770706129113,118.70763179741282)"><path d="M3 20.4 l-1.2 3.6 l-1.5 0 l0 -0.6 l4.9 -13.4 l1.7 0 l4.9 13.4 l0 0.6 l-1.5 0 l-1.2 -3.6 l-6.1 0 z M8.6 19.1 l-2.5 -7.3 l-0.1 0 l-2.5 7.3 l5.1 0 z M12.5 15 l0 -1.2 l1.6 0 l0.6 -3 l0.8 0 l0 3 l2.9 0 l0 1.2 l-2.9 0 l0 6.2 c0 0.9 0.7 1.6 1.6 1.6 l1.9 0 l0 1.2 l-1.9 0 c-1.8 0 -3 -1.2 -3 -2.8 l0 -6.2 l-1.6 0 z M26.8 13.6 l0 1.3 l-1.9 0 c-1.5 0 -2.3 1.7 -2.3 1.7 l0 7.4 l-1.4 0 l0 -10.2 l0.9 0 l0.2 1.4 l0.1 0 s0.8 -1.6 2.5 -1.6 l1.9 0 z M36.2 24 l-4.8 0 c-1.9 0 -3 -1.2 -3 -2.8 l0 -4.8 c0 -1.6 1.2 -2.8 3 -2.8 l2.2 0 c1.8 0 3 1.2 3 2.8 l0 3.1 l-6.8 0 l0 1.7 c0 0.9 0.7 1.6 1.6 1.6 l4.8 0 l0 1.2 z M29.8 16.4 l0 1.9 l5.4 0 l0 -1.9 c0 -0.9 -0.7 -1.6 -1.6 -1.6 l-2.2 0 c-0.9 0 -1.6 0.7 -1.6 1.6 z M41 13.8 l0 10.2 l-1.4 0 l0 -10.2 l1.4 0 z M41 10 l0 2.4 l-1.4 0 l0 -2.4 l1.4 0 z M48.800000000000004 24.2 l-1.8 0 c-1.8 0 -3 -1.2 -3 -2.8 l0 -4.8 c0 -1.6 1.2 -2.8 3 -2.8 l4.1 0 l0 -3.8 l1.4 0 l0 14 l-0.9 0 l-0.2 -1.4 l-0.1 0 s-0.8 1.6 -2.5 1.6 z M47 23 l1.8 0 c1.5 0 2.3 -1.8 2.3 -1.8 l0 -6.2 l-4.1 0 c-0.9 0 -1.6 0.7 -1.6 1.6 l0 4.8 c0 0.9 0.7 1.6 1.6 1.6 z M63.3 24 l-4.8 0 c-1.9 0 -3 -1.2 -3 -2.8 l0 -4.8 c0 -1.6 1.2 -2.8 3 -2.8 l2.2 0 c1.8 0 3 1.2 3 2.8 l0 3.1 l-6.8 0 l0 1.7 c0 0.9 0.7 1.6 1.6 1.6 l4.8 0 l0 1.2 z M56.9 16.4 l0 1.9 l5.4 0 l0 -1.9 c0 -0.9 -0.7 -1.6 -1.6 -1.6 l-2.2 0 c-0.9 0 -1.6 0.7 -1.6 1.6 z M67.3 16.6 c0 0.8 0.4 1.22 1.3 1.4 l2.9 0.6 c1.4 0.3 2.2 1.1 2.2 2.6 c0 1.6 -1.2 2.8 -3 2.8 l-4.9 0 l0 -1.2 l4.9 0 c0.9 0 1.6 -0.7 1.6 -1.6 c0 -0.8 -0.4 -1.22 -1.3 -1.4 l-2.9 -0.6 c-1.4 -0.28 -2.2 -1.1 -2.2 -2.6 c0 -1.62 1.2 -2.8 3 -2.8 l4.5 0 l0 0.8 l-0.4 0.4 l-4.1 0 c-0.9 0 -1.6 0.7 -1.6 1.6 z"/></g>
			</g>
		</svg>
	